<?xml version="1.0" standalone="no"?><!DOCTYPE svg PUBLIC "-//W3C//DTD SVG 1.1//EN" "http://www.w3.org/Graphics/SVG/1.1/DTD/svg11.dtd"><svg t="1590937314412" class="icon" viewBox="0 0 1024 1024" version="1.1" xmlns="http://www.w3.org/2000/svg" p-id="3841" xmlns:xlink="http://www.w3.org/1999/xlink" width="32" height="32"><defs><style type="text/css"></style></defs><path d="M779.002161 1024H245.034718C159.230156 1024 89.369508 955.897239 89.369508 872.17018V217.473998c0-83.727059 69.811477-151.82982 155.628331-151.82982h64.550108a21.512605 21.512605 0 0 1 0 43.02521h-64.513229c-62.079232-0.024586-112.64 48.790588-112.64 108.80461v654.696182c0 60.001729 50.511597 108.80461 112.603121 108.80461h534.004322c62.091525 0 112.603121-48.815174 112.603121-108.80461V217.473998c0-60.001729-50.511597-108.80461-112.603121-108.80461h-32.49018a21.512605 21.512605 0 0 1 0-43.02521h32.49018c85.816855 0 155.628331 68.115054 155.628331 151.82982v654.696182C934.593613 955.897239 864.782137 1024 779.002161 1024z" p-id="3842"></path><path d="M660.891813 146.285714H404.068187a31.383818 31.383818 0 0 1-31.346939-31.346938v-83.591837A31.383818 31.383818 0 0 1 404.068187 0h256.823626a31.383818 31.383818 0 0 1 31.346939 31.346939v83.591837a31.383818 31.383818 0 0 1-31.346939 31.346938zM415.734166 103.260504h233.479375V43.02521H415.734166zM764.889892 359.985786H247.788331a21.512605 21.512605 0 0 1 0-43.02521h517.101561a21.512605 21.512605 0 0 1 0 43.02521zM764.889892 559.36461H247.788331a21.512605 21.512605 0 0 1 0-43.02521h517.101561a21.512605 21.512605 0 0 1 0 43.02521zM640.178247 758.73114h-392.389916a21.512605 21.512605 0 0 1 0-43.02521h392.389916a21.512605 21.512605 0 1 1 0 43.02521z" p-id="3843"></path></svg>